<?xml version="1.0" encoding="utf-8"?>
<!-- Generator: Adobe Illustrator 27.5.0, SVG Export Plug-In . SVG Version: 6.00 Build 0)  -->
<svg version="1.1" xmlns="http://www.w3.org/2000/svg" xmlns:xlink="http://www.w3.org/1999/xlink" x="0px" y="0px"
	 viewBox="0 0 750 500" style="enable-background:new 0 0 750 500;" xml:space="preserve">
<g id="BACKGROUND">
	<rect style="fill:#FFFFFF;" width="750" height="500"/>
</g>
<g id="OBJECTS">
	<g>
		<g>
			<text transform="matrix(1 0 0 1 537.6814 203.4171)"><tspan x="0" y="0" style="fill:#FF9100; font-family:'Montserrat-ExtraBold'; font-size:19px;">Online</tspan><tspan x="66.613" y="0" style="fill:#37474F; font-family:'Montserrat-ExtraBold'; font-size:19px;"> </tspan><tspan x="72.142" y="0" style="fill:#263238; font-family:'Montserrat-ExtraBold'; font-size:19px;">Shop</tspan></text>
			
				<text transform="matrix(1 0 0 1 556.6047 216.6496)" style="fill:#263238; font-family:'Montserrat-Medium'; font-size:9px; letter-spacing:1;">slogan here</text>
		</g>
		<g>
			
				<linearGradient id="SVGID_1_" gradientUnits="userSpaceOnUse" x1="119.7038" y1="572.4438" x2="28.7171" y2="481.4571" gradientTransform="matrix(-1 0 0 -1 664 614.2068)">
				<stop  offset="0" style="stop-color:#FF6E40"/>
				<stop  offset="0.9914" style="stop-color:#FFD740"/>
			</linearGradient>
			<path style="fill:url(#SVGID_1_);" d="M653.413,78.293l-48.433,83.888c-6.751,11.693-23.629,11.693-30.38,0l-48.433-83.888
				c-6.751-11.693,1.688-26.31,15.19-26.31h96.866C651.725,51.983,660.164,66.6,653.413,78.293z"/>
			<g>
				
					<linearGradient id="SVGID_00000065044002953316089660000010294070661695595914_" gradientUnits="userSpaceOnUse" x1="100.4026" y1="566.4122" x2="9.4158" y2="475.4254" gradientTransform="matrix(-1 0 0 -1 664 614.2068)">
					<stop  offset="0.0086" style="stop-color:#FFD740"/>
					<stop  offset="1" style="stop-color:#FF6E40"/>
				</linearGradient>
				
					<path style="fill:url(#SVGID_00000065044002953316089660000010294070661695595914_);stroke:#FFFFFF;stroke-width:3;stroke-miterlimit:10;" d="
					M672.714,84.325l-48.433,83.888c-6.751,11.693-23.629,11.693-30.38,0l-48.433-83.888c-6.751-11.693,1.688-26.31,15.19-26.31
					h96.866C671.026,58.015,679.465,72.632,672.714,84.325z"/>
				<g>
					<path style="fill:#FFFFFF;" d="M600.365,140.898c0,3.253-2.637,5.891-5.891,5.891c-3.253,0-5.891-2.637-5.891-5.891
						c0-3.253,2.637-5.891,5.891-5.891C597.727,135.007,600.365,137.644,600.365,140.898z"/>
					<path style="fill:#FFFFFF;" d="M629.598,140.898c0,3.253-2.637,5.891-5.891,5.891c-3.253,0-5.891-2.637-5.891-5.891
						c0-3.253,2.637-5.891,5.891-5.891C626.961,135.007,629.598,137.644,629.598,140.898z"/>
				</g>
				<g>
					<defs>
						<path id="SVGID_00000127006070113056430830000014650106881879466901_" d="M672.714,84.325l-48.433,83.888
							c-6.751,11.693-23.629,11.693-30.38,0l-48.433-83.888c-6.751-11.693,1.688-26.31,15.19-26.31h96.866
							C671.026,58.015,679.465,72.632,672.714,84.325z"/>
					</defs>
					<clipPath id="SVGID_00000080914239499465683460000013116729616073633941_">
						<use xlink:href="#SVGID_00000127006070113056430830000014650106881879466901_"  style="overflow:visible;"/>
					</clipPath>
					
						<polyline style="clip-path:url(#SVGID_00000080914239499465683460000013116729616073633941_);fill:none;stroke:#FFFFFF;stroke-width:7;stroke-linecap:round;stroke-linejoin:round;stroke-miterlimit:10;" points="
						686.759,81.721 654.774,81.721 629.543,125.179 588.426,125.179 563.588,82.115 632.92,82.115 624.377,99.799 604.467,99.799 
											"/>
				</g>
			</g>
		</g>
	</g>
	<g>
		<g>
			<text transform="matrix(1 0 0 1 81.6514 201.8473)"><tspan x="0" y="0" style="fill:#FF9100; font-family:'Montserrat-ExtraBold'; font-size:19px;">Online</tspan><tspan x="66.613" y="0" style="fill:#37474F; font-family:'Montserrat-ExtraBold'; font-size:19px;"> </tspan><tspan x="72.142" y="0" style="fill:#263238; font-family:'Montserrat-ExtraBold'; font-size:19px;">Shop</tspan></text>
			
				<text transform="matrix(1 0 0 1 100.5747 215.0797)" style="fill:#263238; font-family:'Montserrat-Medium'; font-size:9px; letter-spacing:1;">slogan here</text>
		</g>
		<g>
			
				<linearGradient id="SVGID_00000017477918410285446350000005882532077211964566_" gradientUnits="userSpaceOnUse" x1="103.9328" y1="158.4571" x2="193.3841" y2="69.0058">
				<stop  offset="0" style="stop-color:#FF6E40"/>
				<stop  offset="0.9914" style="stop-color:#FFD740"/>
			</linearGradient>
			<circle style="fill:url(#SVGID_00000017477918410285446350000005882532077211964566_);" cx="148.658" cy="113.731" r="63.252"/>
			
				<linearGradient id="SVGID_00000067936421020578096640000010544045782854001066_" gradientUnits="userSpaceOnUse" x1="93.4361" y1="147.9603" x2="182.8873" y2="58.5091">
				<stop  offset="0.0086" style="stop-color:#FFD740"/>
				<stop  offset="1" style="stop-color:#FF6E40"/>
			</linearGradient>
			
				<circle style="fill:url(#SVGID_00000067936421020578096640000010544045782854001066_);stroke:#FFFFFF;stroke-width:3;stroke-miterlimit:10;" cx="138.162" cy="103.235" r="63.252"/>
			<g>
				<defs>
					<circle id="SVGID_00000095322297735299919840000006955417574306324614_" cx="138.162" cy="103.235" r="63.252"/>
				</defs>
				<clipPath id="SVGID_00000181056328224835319560000002316600241713663105_">
					<use xlink:href="#SVGID_00000095322297735299919840000006955417574306324614_"  style="overflow:visible;"/>
				</clipPath>
				<g style="clip-path:url(#SVGID_00000181056328224835319560000002316600241713663105_);">
					<polyline style="fill:none;stroke:#FFFFFF;stroke-width:6;stroke-linecap:round;stroke-miterlimit:10;" points="
						119.386,60.046 138.201,78.861 187.781,29.281 					"/>
					<g>
						<g>
							
								<line style="fill:none;stroke:#FFFFFF;stroke-width:6;stroke-linecap:round;stroke-miterlimit:10;" x1="98.025" y1="106.553" x2="178.236" y2="106.553"/>
							<polyline style="fill:none;stroke:#FFFFFF;stroke-width:6;stroke-linecap:round;stroke-miterlimit:10;" points="
								182.392,94.709 93.869,94.709 81.585,62.707 							"/>
							
								<line style="fill:none;stroke:#FFFFFF;stroke-width:6;stroke-linecap:round;stroke-miterlimit:10;" x1="102.389" y1="118.398" x2="173.872" y2="118.398"/>
							
								<line style="fill:none;stroke:#FFFFFF;stroke-width:6;stroke-linecap:round;stroke-miterlimit:10;" x1="106.545" y1="130.243" x2="169.716" y2="130.243"/>
						</g>
						<g>
							<path style="fill:none;stroke:#FFFFFF;stroke-width:6;stroke-linecap:round;stroke-miterlimit:10;" d="M125.643,139.383
								c0,3.545-2.873,6.418-6.418,6.418s-6.418-2.874-6.418-6.418s2.873-6.418,6.418-6.418S125.643,135.838,125.643,139.383z"/>
							<path style="fill:none;stroke:#FFFFFF;stroke-width:6;stroke-linecap:round;stroke-miterlimit:10;" d="M163.455,139.383
								c0,3.545-2.874,6.418-6.418,6.418c-3.545,0-6.418-2.874-6.418-6.418s2.874-6.418,6.418-6.418
								C160.581,132.965,163.455,135.838,163.455,139.383z"/>
						</g>
					</g>
				</g>
			</g>
		</g>
	</g>
	<g>
		<g>
			<text transform="matrix(1 0 0 1 313.241 201.8473)"><tspan x="0" y="0" style="fill:#4CAF50; font-family:'Montserrat-ExtraBold'; font-size:19px;">Online</tspan><tspan x="66.613" y="0" style="fill:#37474F; font-family:'Montserrat-ExtraBold'; font-size:19px;"> </tspan><tspan x="72.142" y="0" style="fill:#263238; font-family:'Montserrat-ExtraBold'; font-size:19px;">Shop</tspan></text>
			
				<text transform="matrix(1 0 0 1 332.1644 215.0797)" style="fill:#263238; font-family:'Montserrat-Medium'; font-size:9px; letter-spacing:1;">slogan here</text>
		</g>
		<g>
			
				<linearGradient id="SVGID_00000101803636503015585270000005082855183520091522_" gradientUnits="userSpaceOnUse" x1="337.5172" y1="165.6062" x2="438.9966" y2="64.1267" gradientTransform="matrix(1 0 0 1 -7.008 -4.4265)">
				<stop  offset="0" style="stop-color:#D4E157"/>
				<stop  offset="1" style="stop-color:#4CAF50"/>
			</linearGradient>
			<path style="fill:url(#SVGID_00000101803636503015585270000005082855183520091522_);" d="M411.44,169.691h-60.383
				c-16.049,0-29.06-13.01-29.06-29.06V80.248c0-16.049,13.01-29.06,29.06-29.06h60.383c16.049,0,29.06,13.01,29.06,29.06v60.383
				C440.5,156.681,427.49,169.691,411.44,169.691z"/>
			
				<linearGradient id="SVGID_00000058584488986370766220000009086900431185346963_" gradientUnits="userSpaceOnUse" x1="324.1898" y1="173.7277" x2="427.3283" y2="70.5893" gradientTransform="matrix(1 0 0 1 -7.008 -4.4265)">
				<stop  offset="0" style="stop-color:#4CAF50"/>
				<stop  offset="1" style="stop-color:#D4E157"/>
			</linearGradient>
			
				<path style="fill:url(#SVGID_00000058584488986370766220000009086900431185346963_);stroke:#FFFFFF;stroke-width:3;stroke-miterlimit:10;" d="
				M401.775,176.983h-66.047c-14.485,0-26.227-11.742-26.227-26.227V84.708c0-14.485,11.742-26.227,26.227-26.227h66.047
				c14.485,0,26.227,11.742,26.227,26.227v66.047C428.002,165.241,416.26,176.983,401.775,176.983z"/>
			<g>
				<path style="fill:#FFFFFF;" d="M381.051,131.723c-0.388,0-0.775-0.148-1.071-0.444c-0.592-0.591-0.592-1.551,0-2.142
					l6.938-6.938c6.24-6.24,6.24-16.394,0-22.634c-6.24-6.239-16.393-6.239-22.633,0l-6.939,6.938c-0.592,0.592-1.55,0.592-2.142,0
					c-0.592-0.591-0.592-1.551,0-2.142l6.939-6.938c7.421-7.422,19.497-7.422,26.918,0c7.421,7.421,7.421,19.497,0,26.918
					l-6.938,6.938C381.826,131.575,381.438,131.723,381.051,131.723z"/>
			</g>
			<g>
				<defs>
					<path id="SVGID_00000033362493146997324510000008494117139869566895_" d="M401.775,176.983h-66.047
						c-14.485,0-26.227-11.742-26.227-26.227V84.708c0-14.485,11.742-26.227,26.227-26.227h66.047
						c14.485,0,26.227,11.742,26.227,26.227v66.047C428.002,165.241,416.26,176.983,401.775,176.983z"/>
				</defs>
				<clipPath id="SVGID_00000008126383297453318210000004831624289161037962_">
					<use xlink:href="#SVGID_00000033362493146997324510000008494117139869566895_"  style="overflow:visible;"/>
				</clipPath>
				<path style="clip-path:url(#SVGID_00000008126383297453318210000004831624289161037962_);fill:#FFFFFF;" d="M394.201,127.798
					l-2.912-2.912c-0.265,0.296-0.518,0.6-0.801,0.883l-4.851,4.851c-0.093,1.043-0.517,2.061-1.315,2.859
					c-1.806,1.807-4.736,1.807-6.542,0c-1.807-1.807-1.807-4.736,0-6.542c0.798-0.798,1.816-1.222,2.859-1.316l4.851-4.851
					c0.284-0.284,0.545-0.583,0.799-0.885l-19.693-19.693c-0.302,0.255-0.6,0.518-0.883,0.801l-4.851,4.851
					c-0.093,1.043-0.517,2.061-1.315,2.859c-1.806,1.807-4.736,1.807-6.542,0c-1.807-1.807-1.807-4.736,0-6.542
					c0.798-0.798,1.816-1.222,2.859-1.315l4.852-4.852c0.283-0.283,0.587-0.536,0.883-0.801l-2.912-2.912
					c-4.111-4.111-10.651-4.485-15.204-0.87l-51.227,40.674c-5.354,4.251-5.81,12.217-0.976,17.05l46.07,46.07
					c4.834,4.834,12.8,4.378,17.05-0.976l40.674-51.227C398.686,138.449,398.312,131.909,394.201,127.798z M373.794,143.489
					L341.982,175.3l-19.248-19.248c-1.702-1.702-1.702-4.462,0-6.163c1.702-1.701,4.461-1.701,6.163,0l13.085,13.085l25.649-25.649
					c1.703-1.702,4.461-1.701,6.163,0C375.496,139.027,375.496,141.787,373.794,143.489z"/>
			</g>
		</g>
	</g>
	<g>
		<g>
			<text transform="matrix(1 0 0 1 313.2413 442.8473)"><tspan x="0" y="0" style="fill:#FF9100; font-family:'Montserrat-ExtraBold'; font-size:19px;">Online</tspan><tspan x="66.613" y="0" style="fill:#37474F; font-family:'Montserrat-ExtraBold'; font-size:19px;"> </tspan><tspan x="72.142" y="0" style="fill:#263238; font-family:'Montserrat-ExtraBold'; font-size:19px;">Shop</tspan></text>
			
				<text transform="matrix(1 0 0 1 332.1646 456.0797)" style="fill:#263238; font-family:'Montserrat-Medium'; font-size:9px; letter-spacing:1;">slogan here</text>
		</g>
		<g>
			
				<linearGradient id="SVGID_00000018917630140091339270000000083315475137851313_" gradientUnits="userSpaceOnUse" x1="330.2003" y1="371.4124" x2="409.3781" y2="292.2347">
				<stop  offset="0" style="stop-color:#FF6E40"/>
				<stop  offset="0.9914" style="stop-color:#FFD740"/>
			</linearGradient>
			<path style="fill:url(#SVGID_00000018917630140091339270000000083315475137851313_);" d="M424.283,329.712
				c0,39.168-54.494,78.335-54.494,78.335s-54.494-39.168-54.494-78.335c0-30.096,24.398-54.494,54.494-54.494
				C399.885,275.218,424.283,299.616,424.283,329.712z"/>
			
				<linearGradient id="SVGID_00000075879708644873792770000006995921904778128315_" gradientUnits="userSpaceOnUse" x1="340.6223" y1="380.5832" x2="419.8001" y2="301.4055">
				<stop  offset="0.0086" style="stop-color:#FFD740"/>
				<stop  offset="1" style="stop-color:#FF6E40"/>
			</linearGradient>
			
				<path style="fill:url(#SVGID_00000075879708644873792770000006995921904778128315_);stroke:#FFFFFF;stroke-width:3;stroke-miterlimit:10;" d="
				M434.705,338.883c0,39.168-54.494,78.335-54.494,78.335s-54.494-39.168-54.494-78.335c0-30.096,24.398-54.494,54.494-54.494
				C410.307,284.389,434.705,308.787,434.705,338.883z"/>
			<g>
				<path style="fill:none;" d="M380.211,321.263c-8.906,0-16.816,5.817-19.593,14.115h39.186
					C397.026,327.08,389.116,321.263,380.211,321.263z"/>
				<path style="fill:#FFFFFF;" d="M413.782,349.607l0.379-2.494c0.26-1.708,0.392-3.457,0.392-5.195
					c0-18.936-15.406-34.342-34.342-34.342s-34.342,15.406-34.342,34.342s15.406,34.341,34.342,34.341
					c9.298,0,17.957-3.696,24.29-10.051l-10.516-10.516c-3.65,3.66-8.572,5.731-13.775,5.731c-7.859,0-14.896-4.796-17.925-11.817
					h25.614l-7.69-7.689l7.69,7.689 M380.211,321.263c8.905,0,16.815,5.817,19.592,14.115h-39.186
					C363.395,327.08,371.305,321.263,380.211,321.263z"/>
			</g>
		</g>
	</g>
	<g>
		<g>
			<text transform="matrix(1 0 0 1 537.6814 444.4171)"><tspan x="0" y="0" style="fill:#4CAF50; font-family:'Montserrat-ExtraBold'; font-size:19px;">Online</tspan><tspan x="66.613" y="0" style="fill:#37474F; font-family:'Montserrat-ExtraBold'; font-size:19px;"> </tspan><tspan x="72.142" y="0" style="fill:#263238; font-family:'Montserrat-ExtraBold'; font-size:19px;">Shop</tspan></text>
			
				<text transform="matrix(1 0 0 1 556.6047 457.6496)" style="fill:#263238; font-family:'Montserrat-Medium'; font-size:9px; letter-spacing:1;">slogan here</text>
		</g>
		<g>
			
				<linearGradient id="SVGID_00000120541519357655810720000009506656835848525745_" gradientUnits="userSpaceOnUse" x1="604.372" y1="315.5433" x2="604.372" y2="425.7734" gradientTransform="matrix(0.7071 -0.7071 0.7071 0.7071 -87.0043 501.2241)">
				<stop  offset="0" style="stop-color:#4CAF50"/>
				<stop  offset="1" style="stop-color:#D4E157"/>
			</linearGradient>
			<path style="fill:url(#SVGID_00000120541519357655810720000009506656835848525745_);" d="M661.27,355.079l-39.716,39.716
				c-10.556,10.556-27.671,10.556-38.227,0l-39.716-39.716c-10.556-10.556-10.556-27.671,0-38.227l39.716-39.716
				c10.556-10.556,27.671-10.556,38.227,0l39.716,39.716C671.826,327.408,671.826,344.523,661.27,355.079z"/>
			
				<linearGradient id="SVGID_00000147904686573547598560000015048981645544887683_" gradientUnits="userSpaceOnUse" x1="591.4161" y1="321.5585" x2="591.4161" y2="431.7887" gradientTransform="matrix(0.7071 -0.7071 0.7071 0.7071 -87.0043 501.2241)">
				<stop  offset="0" style="stop-color:#D4E157"/>
				<stop  offset="1" style="stop-color:#4CAF50"/>
			</linearGradient>
			
				<path style="fill:url(#SVGID_00000147904686573547598560000015048981645544887683_);stroke:#FFFFFF;stroke-width:3;stroke-miterlimit:10;" d="
				M658.225,366.63l-43.442,43.442c-9.527,9.527-24.974,9.527-34.502,0l-43.442-43.442c-9.527-9.527-9.527-24.974,0-34.502
				l43.442-43.442c9.527-9.527,24.974-9.527,34.502,0l43.442,43.442C667.752,341.656,667.752,357.103,658.225,366.63z"/>
			<g>
				<g>
					<path style="fill:none;stroke:#FFFFFF;stroke-width:6;stroke-linecap:round;stroke-miterlimit:10;" d="M619.108,380.416
						h-43.152c-3.487,0-6.594-2.202-7.748-5.493L557.49,344.38c-1.874-5.34,2.089-10.93,7.748-10.93h64.586
						c5.659,0,9.622,5.59,7.748,10.93l-10.717,30.544C625.702,378.214,622.595,380.416,619.108,380.416z"/>
					
						<line style="fill:none;stroke:#FFFFFF;stroke-width:6;stroke-linecap:round;stroke-miterlimit:10;" x1="557.775" y1="345.191" x2="582.642" y2="345.191"/>
					
						<line style="fill:none;stroke:#FFFFFF;stroke-width:6;stroke-linecap:round;stroke-miterlimit:10;" x1="620.533" y1="356.933" x2="632.963" y2="356.933"/>
					
						<line style="fill:none;stroke:#FFFFFF;stroke-width:6;stroke-linecap:round;stroke-miterlimit:10;" x1="566.221" y1="368.674" x2="575.903" y2="368.674"/>
					
						<line style="fill:none;stroke:#FFFFFF;stroke-width:6;stroke-linecap:round;stroke-miterlimit:10;" x1="597.532" y1="345.191" x2="637.289" y2="345.191"/>
					
						<line style="fill:none;stroke:#FFFFFF;stroke-width:6;stroke-linecap:round;stroke-miterlimit:10;" x1="562.101" y1="356.933" x2="597.532" y2="356.933"/>
					
						<line style="fill:none;stroke:#FFFFFF;stroke-width:6;stroke-linecap:round;stroke-miterlimit:10;" x1="589.531" y1="368.674" x2="628.843" y2="368.674"/>
					<g>
						
							<line style="fill:none;stroke:#FFFFFF;stroke-width:6;stroke-linecap:round;stroke-miterlimit:10;" x1="575.903" y1="333.449" x2="585.173" y2="318.412"/>
						
							<line style="fill:none;stroke:#FFFFFF;stroke-width:6;stroke-linecap:round;stroke-miterlimit:10;" x1="619.161" y1="333.449" x2="609.891" y2="318.412"/>
					</g>
				</g>
			</g>
		</g>
	</g>
	<g>
		<g>
			<text transform="matrix(1 0 0 1 81.6514 442.8473)"><tspan x="0" y="0" style="fill:#4CAF50; font-family:'Montserrat-ExtraBold'; font-size:19px;">Online</tspan><tspan x="66.613" y="0" style="fill:#37474F; font-family:'Montserrat-ExtraBold'; font-size:19px;"> </tspan><tspan x="72.142" y="0" style="fill:#263238; font-family:'Montserrat-ExtraBold'; font-size:19px;">Shop</tspan></text>
			
				<text transform="matrix(1 0 0 1 100.5747 456.0797)" style="fill:#263238; font-family:'Montserrat-Medium'; font-size:9px; letter-spacing:1;">slogan here</text>
		</g>
		<g>
			
				<linearGradient id="SVGID_00000141433313943809934060000014476045454650009766_" gradientUnits="userSpaceOnUse" x1="103.9328" y1="398.692" x2="193.3841" y2="309.2408">
				<stop  offset="0" style="stop-color:#D4E157"/>
				<stop  offset="1" style="stop-color:#4CAF50"/>
			</linearGradient>
			<circle style="fill:url(#SVGID_00000141433313943809934060000014476045454650009766_);" cx="148.658" cy="353.966" r="63.252"/>
			
				<linearGradient id="SVGID_00000001642877892111056990000001100812178955624851_" gradientUnits="userSpaceOnUse" x1="93.4361" y1="388.1953" x2="182.8873" y2="298.744">
				<stop  offset="0" style="stop-color:#4CAF50"/>
				<stop  offset="1" style="stop-color:#D4E157"/>
			</linearGradient>
			
				<circle style="fill:url(#SVGID_00000001642877892111056990000001100812178955624851_);stroke:#FFFFFF;stroke-width:3;stroke-miterlimit:10;" cx="138.162" cy="343.47" r="63.252"/>
			<g>
				<g>
					<path style="fill:#FFFFFF;" d="M161.735,377.342h-47.148c-3.81,0-7.204-2.406-8.466-6.001l-11.709-33.372
						c-2.047-5.834,2.283-11.942,8.466-11.942h70.566c6.183,0,10.513,6.108,8.466,11.942l-11.709,33.372
						C168.94,374.936,165.545,377.342,161.735,377.342z"/>
					<g>
						
							<line style="fill:none;stroke:#FFFFFF;stroke-width:6;stroke-linecap:round;stroke-miterlimit:10;" x1="114.53" y1="326.027" x2="124.658" y2="309.597"/>
						
							<line style="fill:none;stroke:#FFFFFF;stroke-width:6;stroke-linecap:round;stroke-miterlimit:10;" x1="161.793" y1="326.027" x2="151.665" y2="309.597"/>
					</g>
				</g>
				<g>
					<g>
						<g>
							
								<linearGradient id="SVGID_00000036941836337545090640000009253716735625600425_" gradientUnits="userSpaceOnUse" x1="133.7162" y1="357.6451" x2="147.0891" y2="357.6451">
								<stop  offset="0" style="stop-color:#D4E157"/>
								<stop  offset="1" style="stop-color:#4CAF50"/>
							</linearGradient>
							<path style="fill:url(#SVGID_00000036941836337545090640000009253716735625600425_);" d="M145.681,366.194
								c-1.394,0.861-3.22,0.429-4.08-0.965l-7.442-12.052c-0.861-1.394-0.429-3.22,0.965-4.08s3.22-0.429,4.081,0.965l7.442,12.052
								C147.507,363.507,147.075,365.333,145.681,366.194z"/>
						</g>
						<g>
							
								<linearGradient id="SVGID_00000115489860635179198500000011032540497941574812_" gradientUnits="userSpaceOnUse" x1="126.3973" y1="349.4625" x2="149.9261" y2="349.4625">
								<stop  offset="0" style="stop-color:#D4E157"/>
								<stop  offset="1" style="stop-color:#4CAF50"/>
							</linearGradient>
							<polygon style="fill:url(#SVGID_00000115489860635179198500000011032540497941574812_);" points="149.926,352.736 
								126.397,334.964 131.748,363.961 							"/>
						</g>
					</g>
				</g>
			</g>
		</g>
	</g>
</g>
</svg>
